<svg width="948" height="824" viewBox="0 0 948 824" fill="none" xmlns="http://www.w3.org/2000/svg">
<mask id="path-1-outside-1_54_225" maskUnits="userSpaceOnUse" x="0.448242" y="-0.231445" width="948" height="824" fill="black">
<rect fill="white" x="0.448242" y="-0.231445" width="948" height="824"/>
<path d="M585.374 45.9072C541.439 30.4282 493.541 51.0735 474.1 92.3154C454.646 51.0989 406.763 30.471 362.842 45.9453L100.885 138.238C54.0038 154.755 29.3891 206.15 45.9062 253.031L211.581 723.27C228.098 770.15 279.492 794.765 326.373 778.248L474.163 726.179L621.843 778.21C668.724 794.727 720.118 770.111 736.635 723.23L902.31 252.992C918.827 206.111 894.212 154.717 847.331 138.2L585.374 45.9072Z"/>
</mask>
<path d="M585.374 45.9072C541.439 30.4282 493.541 51.0735 474.1 92.3154C454.646 51.0989 406.763 30.471 362.842 45.9453L100.885 138.238C54.0038 154.755 29.3891 206.15 45.9062 253.031L211.581 723.27C228.098 770.15 279.492 794.765 326.373 778.248L474.163 726.179L621.843 778.21C668.724 794.727 720.118 770.111 736.635 723.23L902.31 252.992C918.827 206.111 894.212 154.717 847.331 138.2L585.374 45.9072Z" fill="#A24CE9"/>
<path d="M585.374 45.9072L598.666 8.18027L598.666 8.18028L585.374 45.9072ZM474.1 92.3154L510.281 109.372L474.121 186.077L437.926 109.388L474.1 92.3154ZM362.842 45.9453L349.55 8.21836L349.55 8.21835L362.842 45.9453ZM100.885 138.238L87.5927 100.511L87.5928 100.511L100.885 138.238ZM45.9062 253.031L8.1793 266.323L8.17929 266.323L45.9062 253.031ZM211.581 723.27L173.854 736.562L173.854 736.562L211.581 723.27ZM326.373 778.248L339.665 815.975L339.665 815.975L326.373 778.248ZM474.163 726.179L460.871 688.452L474.163 683.769L487.455 688.452L474.163 726.179ZM621.843 778.21L608.551 815.937L608.551 815.937L621.843 778.21ZM736.635 723.23L698.908 709.938L698.908 709.938L736.635 723.23ZM902.31 252.992L940.037 266.284L940.037 266.284L902.31 252.992ZM847.331 138.2L860.623 100.473L860.623 100.473L847.331 138.2ZM585.374 45.9072L572.082 83.6342C547.698 75.043 521.064 86.498 510.281 109.372L474.1 92.3154L437.918 75.2593C466.019 15.649 535.181 -14.1867 598.666 8.18027L585.374 45.9072ZM474.1 92.3154L437.926 109.388C427.137 86.5293 400.511 75.0836 376.134 83.6723L362.842 45.9453L349.55 8.21835C413.015 -14.1416 482.156 15.6684 510.273 75.2425L474.1 92.3154ZM362.842 45.9453L376.134 83.6723L114.177 175.965L100.885 138.238L87.5928 100.511L349.55 8.21836L362.842 45.9453ZM100.885 138.238L114.177 175.965C88.132 185.141 74.457 213.694 83.6332 239.739L45.9062 253.031L8.17929 266.323C-15.6787 198.606 19.8756 124.37 87.5927 100.511L100.885 138.238ZM45.9062 253.031L83.6332 239.739L249.308 709.978L211.581 723.27L173.854 736.562L8.1793 266.323L45.9062 253.031ZM211.581 723.27L249.308 709.977C258.484 736.022 287.036 749.697 313.081 740.521L326.373 778.248L339.665 815.975C271.948 839.833 197.712 804.278 173.854 736.562L211.581 723.27ZM326.373 778.248L313.081 740.521L460.871 688.452L474.163 726.179L487.455 763.906L339.665 815.975L326.373 778.248ZM474.163 726.179L487.455 688.452L635.135 740.483L621.843 778.21L608.551 815.937L460.871 763.906L474.163 726.179ZM621.843 778.21L635.135 740.483C661.179 749.659 689.731 735.984 698.908 709.938L736.635 723.23L774.362 736.522C750.504 804.239 676.268 839.795 608.551 815.937L621.843 778.21ZM736.635 723.23L698.908 709.938L864.583 239.7L902.31 252.992L940.037 266.284L774.362 736.522L736.635 723.23ZM902.31 252.992L864.583 239.7C873.759 213.655 860.084 185.103 834.039 175.927L847.331 138.2L860.623 100.473C928.34 124.331 963.894 198.567 940.037 266.284L902.31 252.992ZM847.331 138.2L834.039 175.927L572.082 83.6342L585.374 45.9072L598.666 8.18028L860.623 100.473L847.331 138.2Z" fill="white" mask="url(#path-1-outside-1_54_225)"/>
<rect x="709.783" y="814.494" width="467.74" height="688.57" rx="95" transform="rotate(-160.592 709.783 814.494)" fill="#FFA14A" stroke="white" stroke-width="10"/>
<rect width="457.74" height="678.57" rx="90" transform="matrix(0.943174 -0.332299 -0.332299 -0.943174 241.488 808.155)" fill="#4017FE"/>
<path d="M474.1 92.3154C472.796 95.0812 471.619 97.9394 470.581 100.886L304.906 571.124C288.389 618.005 313.005 669.399 359.886 685.916L474.164 726.178L588.331 685.955C635.212 669.438 659.827 618.043 643.31 571.162L477.635 100.924C476.592 97.9641 475.411 95.0929 474.1 92.3154Z" fill="#A24CE9"/>
</svg>
