<svg width="599" height="759" viewBox="0 0 599 759" fill="none" xmlns="http://www.w3.org/2000/svg">
<path fill-rule="evenodd" clip-rule="evenodd" d="M423.201 79H35.0599C15.8733 79 0.261078 94.6095 0.261078 113.796V722.776C0.261078 741.962 15.8733 757.575 35.0599 757.575H423.201C442.388 757.575 458 741.962 458 722.776V113.799C458 94.6122 442.388 79 423.201 79Z" fill="#4017FE"/>
<path fill-rule="evenodd" clip-rule="evenodd" d="M564.943 86.8517L185.073 7.14604C166.296 3.20603 147.811 15.2768 143.871 34.0545L18.8156 630.056C14.8756 648.834 26.9491 667.319 45.7268 671.259L425.596 750.965C444.374 754.905 462.859 742.831 466.799 724.054L591.854 128.055C595.794 109.277 583.721 90.7917 564.943 86.8517Z" fill="#05D697"/>
<path d="M18.8154 630.056C14.8754 648.833 26.949 667.319 45.7266 671.259L425.596 750.965C432.676 752.45 439.714 751.658 445.947 749.09C453.325 742.704 458 733.275 458 722.776V113.799C458 94.6122 442.388 79 423.201 79H134.44L18.8154 630.056Z" fill="#337AFF"/>
</svg>
