<svg width="2882" height="793" viewBox="0 0 2882 793" fill="none" xmlns="http://www.w3.org/2000/svg">
<path d="M1306.5 572C1275.5 572 1249.5 567.5 1228.5 558.5C1207.83 549.167 1192 537.167 1181 522.5C1170.33 507.5 1164.67 491.834 1164 475.5C1164 472.5 1165 470 1167 468C1169 466 1171.5 465 1174.5 465H1219C1223.33 465 1226.5 466 1228.5 468C1230.83 469.667 1232.83 471.834 1234.5 474.5C1236.5 480.834 1240.33 487.167 1246 493.5C1251.67 499.5 1259.33 504.5 1269 508.5C1279 512.5 1291.5 514.5 1306.5 514.5C1330.5 514.5 1348.33 510.5 1360 502.5C1372 494.5 1378 483.667 1378 470C1378 460.334 1374.83 452.667 1368.5 447C1362.17 441 1352.33 435.667 1339 431C1326 426 1308.67 420.834 1287 415.5C1262 409.5 1241 402.334 1224 394C1207.33 385.334 1194.67 374.5 1186 361.5C1177.67 348.5 1173.5 332 1173.5 312C1173.5 292.667 1178.67 275.5 1189 260.5C1199.67 245.5 1214.67 233.667 1234 225C1253.67 216.334 1277 212 1304 212C1325.67 212 1344.83 215 1361.5 221C1378.17 226.667 1392 234.334 1403 244C1414 253.334 1422.33 263.5 1428 274.5C1434 285.167 1437.17 295.667 1437.5 306C1437.5 308.667 1436.5 311.167 1434.5 313.5C1432.83 315.5 1430.33 316.5 1427 316.5H1380.5C1377.83 316.5 1375.17 315.834 1372.5 314.5C1369.83 313.167 1367.67 310.667 1366 307C1364 296.667 1357.5 287.834 1346.5 280.5C1335.5 273.167 1321.33 269.5 1304 269.5C1286 269.5 1271.5 272.834 1260.5 279.5C1249.5 286.167 1244 296.5 1244 310.5C1244 319.834 1246.67 327.667 1252 334C1257.67 340 1266.5 345.334 1278.5 350C1290.83 354.667 1307 359.667 1327 365C1355.33 371.334 1378.5 378.667 1396.5 387C1414.5 395.334 1427.67 406 1436 419C1444.33 431.667 1448.5 447.834 1448.5 467.5C1448.5 489.5 1442.5 508.334 1430.5 524C1418.83 539.334 1402.33 551.167 1381 559.5C1359.67 567.834 1334.83 572 1306.5 572ZM1570.8 567C1566.13 567 1562.63 565.834 1560.3 563.5C1557.97 561.167 1555.97 558.167 1554.3 554.5L1482.8 322.5C1482.47 320.834 1482.3 319.334 1482.3 318C1482.3 315 1483.3 312.5 1485.3 310.5C1487.63 308.167 1490.13 307 1492.8 307H1529.8C1533.8 307 1536.97 308.167 1539.3 310.5C1541.63 312.5 1542.97 314.5 1543.3 316.5L1592.3 482L1644.3 318C1644.97 315.667 1646.47 313.334 1648.8 311C1651.13 308.334 1654.63 307 1659.3 307H1684.3C1688.97 307 1692.47 308.334 1694.8 311C1697.13 313.334 1698.63 315.667 1699.3 318L1751.3 482L1800.3 316.5C1800.63 314.5 1801.8 312.5 1803.8 310.5C1806.13 308.167 1809.3 307 1813.3 307H1850.3C1853.3 307 1855.8 308.167 1857.8 310.5C1860.13 312.5 1861.3 315 1861.3 318C1861.3 319.334 1860.97 320.834 1860.3 322.5L1788.8 554.5C1787.8 558.167 1785.97 561.167 1783.3 563.5C1780.97 565.834 1777.47 567 1772.8 567H1740.3C1735.63 567 1731.97 565.834 1729.3 563.5C1726.63 561.167 1724.8 558.167 1723.8 554.5L1671.8 396.5L1619.8 554.5C1618.47 558.167 1616.47 561.167 1613.8 563.5C1611.47 565.834 1607.8 567 1602.8 567H1570.8ZM1921.96 567C1918.62 567 1915.79 565.834 1913.46 563.5C1911.12 561.167 1909.96 558.334 1909.96 555V319C1909.96 315.667 1911.12 312.834 1913.46 310.5C1915.79 308.167 1918.62 307 1921.96 307H1963.46C1967.12 307 1969.96 308.167 1971.96 310.5C1974.29 312.834 1975.46 315.667 1975.46 319V555C1975.46 558.334 1974.29 561.167 1971.96 563.5C1969.96 565.834 1967.12 567 1963.46 567H1921.96ZM1919.96 264C1916.29 264 1913.29 263 1910.96 261C1908.96 258.667 1907.96 255.667 1907.96 252V216C1907.96 212.667 1908.96 209.834 1910.96 207.5C1913.29 205.167 1916.29 204 1919.96 204H1965.46C1969.12 204 1972.12 205.167 1974.46 207.5C1976.79 209.834 1977.96 212.667 1977.96 216V252C1977.96 255.667 1976.79 258.667 1974.46 261C1972.12 263 1969.12 264 1965.46 264H1919.96ZM2054.29 662C2050.96 662 2048.13 660.834 2045.79 658.5C2043.46 656.167 2042.29 653.334 2042.29 650V319C2042.29 315.667 2043.46 312.834 2045.79 310.5C2048.13 308.167 2050.96 307 2054.29 307H2093.79C2097.46 307 2100.29 308.167 2102.29 310.5C2104.63 312.834 2105.79 315.667 2105.79 319V339C2113.79 328.334 2124.29 319.5 2137.29 312.5C2150.29 305.5 2166.46 302 2185.79 302C2203.46 302 2218.79 304.834 2231.79 310.5C2244.79 316.167 2255.63 324.334 2264.29 335C2272.96 345.334 2279.63 357.667 2284.29 372C2288.96 386.334 2291.63 402.167 2292.29 419.5C2292.63 425.167 2292.79 431 2292.79 437C2292.79 443 2292.63 449 2292.29 455C2291.96 471.667 2289.46 487.167 2284.79 501.5C2280.13 515.5 2273.29 527.834 2264.29 538.5C2255.63 548.834 2244.79 557 2231.79 563C2218.79 569 2203.46 572 2185.79 572C2167.79 572 2152.46 568.834 2139.79 562.5C2127.13 555.834 2116.79 547.167 2108.79 536.5V650C2108.79 653.334 2107.63 656.167 2105.29 658.5C2103.29 660.834 2100.46 662 2096.79 662H2054.29ZM2167.29 518.5C2181.63 518.5 2192.79 515.5 2200.79 509.5C2208.79 503.167 2214.46 495 2217.79 485C2221.46 475 2223.63 464 2224.29 452C2224.96 442 2224.96 432 2224.29 422C2223.63 410 2221.46 399 2217.79 389C2214.46 379 2208.79 371 2200.79 365C2192.79 358.667 2181.63 355.5 2167.29 355.5C2153.63 355.5 2142.46 358.667 2133.79 365C2125.46 371.334 2119.29 379.5 2115.29 389.5C2111.63 399.167 2109.46 409.167 2108.79 419.5C2108.46 425.5 2108.29 431.834 2108.29 438.5C2108.29 445.167 2108.46 451.667 2108.79 458C2109.13 468 2111.46 477.667 2115.79 487C2120.13 496 2126.46 503.5 2134.79 509.5C2143.13 515.5 2153.96 518.5 2167.29 518.5ZM2460.92 572C2423.92 572 2394.59 561.334 2372.92 540C2351.25 518.667 2339.59 488.334 2337.92 449C2337.59 445.667 2337.42 441.5 2337.42 436.5C2337.42 431.167 2337.59 427 2337.92 424C2339.25 399 2344.92 377.334 2354.92 359C2365.25 340.667 2379.42 326.667 2397.42 317C2415.42 307 2436.59 302 2460.92 302C2487.92 302 2510.59 307.667 2528.92 319C2547.25 330 2561.09 345.5 2570.42 365.5C2579.75 385.167 2584.42 408 2584.42 434V444.5C2584.42 447.834 2583.25 450.667 2580.92 453C2578.59 455.334 2575.59 456.5 2571.92 456.5H2405.92C2405.92 456.5 2405.92 457 2405.92 458C2405.92 459 2405.92 459.834 2405.92 460.5C2406.25 472.167 2408.42 483 2412.42 493C2416.75 502.667 2422.92 510.5 2430.92 516.5C2439.25 522.5 2449.09 525.5 2460.42 525.5C2469.75 525.5 2477.59 524.167 2483.92 521.5C2490.25 518.5 2495.42 515.167 2499.42 511.5C2503.42 507.834 2506.25 504.834 2507.92 502.5C2510.92 498.5 2513.25 496.167 2514.92 495.5C2516.92 494.5 2519.75 494 2523.42 494H2566.42C2569.75 494 2572.42 495 2574.42 497C2576.75 499 2577.75 501.5 2577.42 504.5C2577.09 509.834 2574.25 516.334 2568.92 524C2563.92 531.667 2556.59 539.167 2546.92 546.5C2537.25 553.834 2525.09 560 2510.42 565C2496.09 569.667 2479.59 572 2460.92 572ZM2405.92 414.5H2516.42V413C2516.42 400 2514.25 388.667 2509.92 379C2505.59 369.334 2499.25 361.667 2490.92 356C2482.59 350.334 2472.59 347.5 2460.92 347.5C2449.25 347.5 2439.25 350.334 2430.92 356C2422.59 361.667 2416.25 369.334 2411.92 379C2407.92 388.667 2405.92 400 2405.92 413V414.5ZM2674.24 662C2671.58 662 2669.24 661 2667.24 659C2665.24 657 2664.24 654.667 2664.24 652C2664.24 650.667 2664.24 649.334 2664.24 648C2664.58 647 2665.24 645.667 2666.24 644L2705.24 551.5L2609.24 325C2607.91 321.667 2607.24 319.334 2607.24 318C2607.58 315 2608.74 312.5 2610.74 310.5C2612.74 308.167 2615.24 307 2618.24 307H2658.74C2662.74 307 2665.74 308 2667.74 310C2669.74 312 2671.24 314.167 2672.24 316.5L2738.74 480L2807.24 316.5C2808.24 313.834 2809.74 311.667 2811.74 310C2813.74 308 2816.74 307 2820.74 307H2860.74C2863.41 307 2865.74 308 2867.74 310C2870.08 312 2871.24 314.334 2871.24 317C2871.24 319 2870.58 321.667 2869.24 325L2727.74 652.5C2726.41 655.167 2724.74 657.334 2722.74 659C2720.74 661 2717.74 662 2713.74 662H2674.24Z" fill="black"/>
<g style="mix-blend-mode:lighten">
<rect width="457.74" height="678.57" rx="90" transform="matrix(0.943174 -0.332299 -0.332299 -0.943174 225.488 792.155)" fill="#4017FE"/>
</g>
<rect x="690.729" y="792.116" width="457.74" height="678.57" rx="90" transform="rotate(-160.592 690.729 792.116)" fill="#FFA14A"/>
<path d="M458.1 76.3154C456.796 79.0812 455.62 81.9394 454.582 84.8857L288.907 555.124C272.39 602.005 297.005 653.399 343.886 669.916L458.165 710.178L572.332 669.955C619.212 653.438 643.827 602.043 627.31 555.162L461.635 84.9238C460.592 81.9641 459.411 79.0929 458.1 76.3154Z" fill="#A24CE9"/>
</svg>
