<svg width="2753" height="793" viewBox="0 0 2753 793" fill="none" xmlns="http://www.w3.org/2000/svg">
<path d="M1177.82 573C1146.82 573 1120.82 568.5 1099.82 559.5C1079.16 550.167 1063.32 538.167 1052.32 523.5C1041.66 508.5 1035.99 492.833 1035.32 476.5C1035.32 473.5 1036.32 471 1038.32 469C1040.32 467 1042.82 466 1045.82 466H1090.32C1094.66 466 1097.82 467 1099.82 469C1102.16 470.667 1104.16 472.833 1105.82 475.5C1107.82 481.833 1111.66 488.167 1117.32 494.5C1122.99 500.5 1130.66 505.5 1140.32 509.5C1150.32 513.5 1162.82 515.5 1177.82 515.5C1201.82 515.5 1219.66 511.5 1231.32 503.5C1243.32 495.5 1249.32 484.667 1249.32 471C1249.32 461.333 1246.16 453.667 1239.82 448C1233.49 442 1223.66 436.667 1210.32 432C1197.32 427 1179.99 421.833 1158.32 416.5C1133.32 410.5 1112.32 403.333 1095.32 395C1078.66 386.333 1065.99 375.5 1057.32 362.5C1048.99 349.5 1044.82 333 1044.82 313C1044.82 293.667 1049.99 276.5 1060.32 261.5C1070.99 246.5 1085.99 234.667 1105.32 226C1124.99 217.333 1148.32 213 1175.32 213C1196.99 213 1216.16 216 1232.82 222C1249.49 227.667 1263.32 235.333 1274.32 245C1285.32 254.333 1293.66 264.5 1299.32 275.5C1305.32 286.167 1308.49 296.667 1308.82 307C1308.82 309.667 1307.82 312.167 1305.82 314.5C1304.16 316.5 1301.66 317.5 1298.32 317.5H1251.82C1249.16 317.5 1246.49 316.833 1243.82 315.5C1241.16 314.167 1238.99 311.667 1237.32 308C1235.32 297.667 1228.82 288.833 1217.82 281.5C1206.82 274.167 1192.66 270.5 1175.32 270.5C1157.32 270.5 1142.82 273.833 1131.82 280.5C1120.82 287.167 1115.32 297.5 1115.32 311.5C1115.32 320.833 1117.99 328.667 1123.32 335C1128.99 341 1137.82 346.333 1149.82 351C1162.16 355.667 1178.32 360.667 1198.32 366C1226.66 372.333 1249.82 379.667 1267.82 388C1285.82 396.333 1298.99 407 1307.32 420C1315.66 432.667 1319.82 448.833 1319.82 468.5C1319.82 490.5 1313.82 509.333 1301.82 525C1290.16 540.333 1273.66 552.167 1252.32 560.5C1230.99 568.833 1206.16 573 1177.82 573ZM1442.13 568C1437.46 568 1433.96 566.833 1431.63 564.5C1429.29 562.167 1427.29 559.167 1425.63 555.5L1354.13 323.5C1353.79 321.833 1353.63 320.333 1353.63 319C1353.63 316 1354.63 313.5 1356.63 311.5C1358.96 309.167 1361.46 308 1364.13 308H1401.13C1405.13 308 1408.29 309.167 1410.63 311.5C1412.96 313.5 1414.29 315.5 1414.63 317.5L1463.63 483L1515.63 319C1516.29 316.667 1517.79 314.333 1520.13 312C1522.46 309.333 1525.96 308 1530.63 308H1555.63C1560.29 308 1563.79 309.333 1566.13 312C1568.46 314.333 1569.96 316.667 1570.63 319L1622.63 483L1671.63 317.5C1671.96 315.5 1673.13 313.5 1675.13 311.5C1677.46 309.167 1680.63 308 1684.63 308H1721.63C1724.63 308 1727.13 309.167 1729.13 311.5C1731.46 313.5 1732.63 316 1732.63 319C1732.63 320.333 1732.29 321.833 1731.63 323.5L1660.13 555.5C1659.13 559.167 1657.29 562.167 1654.63 564.5C1652.29 566.833 1648.79 568 1644.13 568H1611.63C1606.96 568 1603.29 566.833 1600.63 564.5C1597.96 562.167 1596.13 559.167 1595.12 555.5L1543.13 397.5L1491.13 555.5C1489.79 559.167 1487.79 562.167 1485.12 564.5C1482.79 566.833 1479.13 568 1474.13 568H1442.13ZM1793.28 568C1789.95 568 1787.11 566.833 1784.78 564.5C1782.45 562.167 1781.28 559.333 1781.28 556V320C1781.28 316.667 1782.45 313.833 1784.78 311.5C1787.11 309.167 1789.95 308 1793.28 308H1834.78C1838.45 308 1841.28 309.167 1843.28 311.5C1845.61 313.833 1846.78 316.667 1846.78 320V556C1846.78 559.333 1845.61 562.167 1843.28 564.5C1841.28 566.833 1838.45 568 1834.78 568H1793.28ZM1791.28 265C1787.61 265 1784.61 264 1782.28 262C1780.28 259.667 1779.28 256.667 1779.28 253V217C1779.28 213.667 1780.28 210.833 1782.28 208.5C1784.61 206.167 1787.61 205 1791.28 205H1836.78C1840.45 205 1843.45 206.167 1845.78 208.5C1848.11 210.833 1849.28 213.667 1849.28 217V253C1849.28 256.667 1848.11 259.667 1845.78 262C1843.45 264 1840.45 265 1836.78 265H1791.28ZM1925.62 663C1922.28 663 1919.45 661.833 1917.12 659.5C1914.78 657.167 1913.62 654.333 1913.62 651V320C1913.62 316.667 1914.78 313.833 1917.12 311.5C1919.45 309.167 1922.28 308 1925.62 308H1965.12C1968.78 308 1971.62 309.167 1973.62 311.5C1975.95 313.833 1977.12 316.667 1977.12 320V340C1985.12 329.333 1995.62 320.5 2008.62 313.5C2021.62 306.5 2037.78 303 2057.12 303C2074.78 303 2090.12 305.833 2103.12 311.5C2116.12 317.167 2126.95 325.333 2135.62 336C2144.28 346.333 2150.95 358.667 2155.62 373C2160.28 387.333 2162.95 403.167 2163.62 420.5C2163.95 426.167 2164.12 432 2164.12 438C2164.12 444 2163.95 450 2163.62 456C2163.28 472.667 2160.78 488.167 2156.12 502.5C2151.45 516.5 2144.62 528.833 2135.62 539.5C2126.95 549.833 2116.12 558 2103.12 564C2090.12 570 2074.78 573 2057.12 573C2039.12 573 2023.78 569.833 2011.12 563.5C1998.45 556.833 1988.12 548.167 1980.12 537.5V651C1980.12 654.333 1978.95 657.167 1976.62 659.5C1974.62 661.833 1971.78 663 1968.12 663H1925.62ZM2038.62 519.5C2052.95 519.5 2064.12 516.5 2072.12 510.5C2080.12 504.167 2085.78 496 2089.12 486C2092.78 476 2094.95 465 2095.62 453C2096.28 443 2096.28 433 2095.62 423C2094.95 411 2092.78 400 2089.12 390C2085.78 380 2080.12 372 2072.12 366C2064.12 359.667 2052.95 356.5 2038.62 356.5C2024.95 356.5 2013.78 359.667 2005.12 366C1996.78 372.333 1990.62 380.5 1986.62 390.5C1982.95 400.167 1980.78 410.167 1980.12 420.5C1979.78 426.5 1979.62 432.833 1979.62 439.5C1979.62 446.167 1979.78 452.667 1980.12 459C1980.45 469 1982.78 478.667 1987.12 488C1991.45 497 1997.78 504.5 2006.12 510.5C2014.45 516.5 2025.28 519.5 2038.62 519.5ZM2332.25 573C2295.25 573 2265.91 562.333 2244.25 541C2222.58 519.667 2210.91 489.333 2209.25 450C2208.91 446.667 2208.75 442.5 2208.75 437.5C2208.75 432.167 2208.91 428 2209.25 425C2210.58 400 2216.25 378.333 2226.25 360C2236.58 341.667 2250.75 327.667 2268.75 318C2286.75 308 2307.91 303 2332.25 303C2359.25 303 2381.91 308.667 2400.25 320C2418.58 331 2432.41 346.5 2441.75 366.5C2451.08 386.167 2455.75 409 2455.75 435V445.5C2455.75 448.833 2454.58 451.667 2452.25 454C2449.91 456.333 2446.91 457.5 2443.25 457.5H2277.25C2277.25 457.5 2277.25 458 2277.25 459C2277.25 460 2277.25 460.833 2277.25 461.5C2277.58 473.167 2279.75 484 2283.75 494C2288.08 503.667 2294.25 511.5 2302.25 517.5C2310.58 523.5 2320.41 526.5 2331.75 526.5C2341.08 526.5 2348.91 525.167 2355.25 522.5C2361.58 519.5 2366.75 516.167 2370.75 512.5C2374.75 508.833 2377.58 505.833 2379.25 503.5C2382.25 499.5 2384.58 497.167 2386.25 496.5C2388.25 495.5 2391.08 495 2394.75 495H2437.75C2441.08 495 2443.75 496 2445.75 498C2448.08 500 2449.08 502.5 2448.75 505.5C2448.41 510.833 2445.58 517.333 2440.25 525C2435.25 532.667 2427.91 540.167 2418.25 547.5C2408.58 554.833 2396.41 561 2381.75 566C2367.41 570.667 2350.91 573 2332.25 573ZM2277.25 415.5H2387.75V414C2387.75 401 2385.58 389.667 2381.25 380C2376.91 370.333 2370.58 362.667 2362.25 357C2353.91 351.333 2343.91 348.5 2332.25 348.5C2320.58 348.5 2310.58 351.333 2302.25 357C2293.91 362.667 2287.58 370.333 2283.25 380C2279.25 389.667 2277.25 401 2277.25 414V415.5ZM2545.57 663C2542.9 663 2540.57 662 2538.57 660C2536.57 658 2535.57 655.667 2535.57 653C2535.57 651.667 2535.57 650.333 2535.57 649C2535.9 648 2536.57 646.667 2537.57 645L2576.57 552.5L2480.57 326C2479.23 322.667 2478.57 320.333 2478.57 319C2478.9 316 2480.07 313.5 2482.07 311.5C2484.07 309.167 2486.57 308 2489.57 308H2530.07C2534.07 308 2537.07 309 2539.07 311C2541.07 313 2542.57 315.167 2543.57 317.5L2610.07 481L2678.57 317.5C2679.57 314.833 2681.07 312.667 2683.07 311C2685.07 309 2688.07 308 2692.07 308H2732.07C2734.73 308 2737.07 309 2739.07 311C2741.4 313 2742.57 315.333 2742.57 318C2742.57 320 2741.9 322.667 2740.57 326L2599.07 653.5C2597.73 656.167 2596.07 658.333 2594.07 660C2592.07 662 2589.07 663 2585.07 663H2545.57Z" fill="#4017FE"/>
<rect width="457.74" height="678.57" rx="90" transform="matrix(0.943174 -0.332299 -0.332299 -0.943174 225.488 792.155)" fill="#4017FE"/>
<rect x="690.729" y="792.116" width="457.74" height="678.57" rx="90" transform="rotate(-160.592 690.729 792.116)" fill="#FFA14A"/>
<path d="M458.1 76.3154C456.796 79.0812 455.62 81.9394 454.582 84.8857L288.907 555.124C272.39 602.005 297.005 653.399 343.886 669.916L458.165 710.178L572.332 669.955C619.212 653.438 643.827 602.043 627.31 555.162L461.635 84.9238C460.592 81.9641 459.411 79.0929 458.1 76.3154Z" fill="#A24CE9"/>
</svg>
