<svg width="1651" height="759" viewBox="0 0 1651 759" fill="none" xmlns="http://www.w3.org/2000/svg">
<path d="M738.6 524C721.2 524 706.6 521.4 694.8 516.2C683 510.8 673.9 503.9 667.5 495.5C661.3 486.9 658 477.8 657.6 468.2C657.6 466.6 658.2 465.2 659.4 464C660.8 462.6 662.4 461.9 664.2 461.9H679.5C681.9 461.9 683.7 462.5 684.9 463.7C686.1 464.9 686.9 466.3 687.3 467.9C688.3 472.7 690.7 477.5 694.5 482.3C698.5 486.9 704 490.8 711 494C718.2 497 727.4 498.5 738.6 498.5C755.8 498.5 768.4 495.5 776.4 489.5C784.6 483.3 788.7 475.1 788.7 464.9C788.7 457.9 786.5 452.3 782.1 448.1C777.9 443.7 771.4 439.8 762.6 436.4C753.8 433 742.4 429.3 728.4 425.3C713.8 421.1 701.7 416.5 692.1 411.5C682.5 406.5 675.3 400.3 670.5 392.9C665.9 385.5 663.6 376.1 663.6 364.7C663.6 353.9 666.5 344.3 672.3 335.9C678.1 327.3 686.4 320.5 697.2 315.5C708.2 310.5 721.5 308 737.1 308C749.5 308 760.3 309.7 769.5 313.1C778.9 316.3 786.7 320.7 792.9 326.3C799.1 331.7 803.8 337.6 807 344C810.2 350.2 811.9 356.3 812.1 362.3C812.1 363.7 811.6 365.1 810.6 366.5C809.6 367.7 808 368.3 805.8 368.3H789.9C788.5 368.3 787 367.9 785.4 367.1C784 366.3 782.9 364.8 782.1 362.6C780.9 354.4 776.3 347.5 768.3 341.9C760.3 336.3 749.9 333.5 737.1 333.5C724.1 333.5 713.5 336 705.3 341C697.3 346 693.3 353.8 693.3 364.4C693.3 371.2 695.2 376.9 699 381.5C702.8 385.9 708.8 389.8 717 393.2C725.2 396.6 735.9 400.2 749.1 404C765.1 408.4 778.2 413.1 788.4 418.1C798.6 422.9 806.1 429 810.9 436.4C815.9 443.6 818.4 452.9 818.4 464.3C818.4 476.9 815.1 487.7 808.5 496.7C801.9 505.5 792.6 512.3 780.6 517.1C768.8 521.7 754.8 524 738.6 524ZM895.221 521C892.621 521 890.621 520.4 889.221 519.2C887.821 517.8 886.621 515.9 885.621 513.5L843.021 374.3C842.621 373.3 842.421 372.3 842.421 371.3C842.421 369.5 843.021 368 844.221 366.8C845.621 365.6 847.121 365 848.721 365H861.921C864.121 365 865.821 365.6 867.021 366.8C868.221 368 869.021 369.1 869.421 370.1L902.721 483.2L938.421 371.3C938.821 369.9 939.621 368.5 940.821 367.1C942.221 365.7 944.221 365 946.821 365H957.021C959.621 365 961.621 365.7 963.021 367.1C964.421 368.5 965.221 369.9 965.421 371.3L1001.12 483.2L1034.42 370.1C1034.62 369.1 1035.32 368 1036.52 366.8C1037.72 365.6 1039.42 365 1041.62 365H1054.82C1056.62 365 1058.12 365.6 1059.32 366.8C1060.52 368 1061.12 369.5 1061.12 371.3C1061.12 372.3 1060.92 373.3 1060.52 374.3L1017.92 513.5C1017.32 515.9 1016.22 517.8 1014.62 519.2C1013.22 520.4 1011.12 521 1008.32 521H996.621C994.021 521 991.821 520.4 990.021 519.2C988.421 517.8 987.321 515.9 986.721 513.5L951.921 406.1L917.121 513.5C916.321 515.9 915.121 517.8 913.521 519.2C911.921 520.4 909.721 521 906.921 521H895.221ZM1101.25 521C1099.25 521 1097.55 520.4 1096.15 519.2C1094.95 517.8 1094.35 516.1 1094.35 514.1V371.9C1094.35 369.9 1094.95 368.3 1096.15 367.1C1097.55 365.7 1099.25 365 1101.25 365H1115.65C1117.65 365 1119.25 365.7 1120.45 367.1C1121.65 368.3 1122.25 369.9 1122.25 371.9V514.1C1122.25 516.1 1121.65 517.8 1120.45 519.2C1119.25 520.4 1117.65 521 1115.65 521H1101.25ZM1098.85 335.9C1096.85 335.9 1095.15 335.3 1093.75 334.1C1092.55 332.7 1091.95 331 1091.95 329V312.8C1091.95 310.8 1092.55 309.2 1093.75 308C1095.15 306.6 1096.85 305.9 1098.85 305.9H1117.75C1119.75 305.9 1121.35 306.6 1122.55 308C1123.95 309.2 1124.65 310.8 1124.65 312.8V329C1124.65 331 1123.95 332.7 1122.55 334.1C1121.35 335.3 1119.75 335.9 1117.75 335.9H1098.85ZM1174.2 578C1172.2 578 1170.5 577.3 1169.1 575.9C1167.9 574.7 1167.3 573.1 1167.3 571.1V371.9C1167.3 369.9 1167.9 368.3 1169.1 367.1C1170.5 365.7 1172.2 365 1174.2 365H1188C1190 365 1191.6 365.7 1192.8 367.1C1194.2 368.3 1194.9 369.9 1194.9 371.9V385.1C1199.7 378.5 1206.1 373 1214.1 368.6C1222.1 364.2 1232.1 362 1244.1 362C1255.3 362 1264.8 363.9 1272.6 367.7C1280.6 371.5 1287.1 376.7 1292.1 383.3C1297.3 389.9 1301.2 397.4 1303.8 405.8C1306.4 414.2 1307.8 423.2 1308 432.8C1308.2 436 1308.3 439.4 1308.3 443C1308.3 446.6 1308.2 450 1308 453.2C1307.8 462.6 1306.4 471.6 1303.8 480.2C1301.2 488.6 1297.3 496.1 1292.1 502.7C1287.1 509.1 1280.6 514.3 1272.6 518.3C1264.8 522.1 1255.3 524 1244.1 524C1232.5 524 1222.7 521.9 1214.7 517.7C1206.9 513.3 1200.5 507.9 1195.5 501.5V571.1C1195.5 573.1 1194.9 574.7 1193.7 575.9C1192.5 577.3 1190.8 578 1188.6 578H1174.2ZM1237.8 499.7C1248.2 499.7 1256.3 497.5 1262.1 493.1C1268.1 488.5 1272.4 482.6 1275 475.4C1277.6 468 1279.1 460.1 1279.5 451.7C1279.7 445.9 1279.7 440.1 1279.5 434.3C1279.1 425.9 1277.6 418.1 1275 410.9C1272.4 403.5 1268.1 397.6 1262.1 393.2C1256.3 388.6 1248.2 386.3 1237.8 386.3C1228 386.3 1220 388.6 1213.8 393.2C1207.8 397.8 1203.3 403.7 1200.3 410.9C1197.5 417.9 1195.9 425.1 1195.5 432.5C1195.3 435.7 1195.2 439.5 1195.2 443.9C1195.2 448.3 1195.3 452.2 1195.5 455.6C1195.7 462.6 1197.3 469.5 1200.3 476.3C1203.5 483.1 1208.2 488.7 1214.4 493.1C1220.6 497.5 1228.4 499.7 1237.8 499.7ZM1407.82 524C1387.22 524 1370.82 517.7 1358.62 505.1C1346.42 492.3 1339.72 474.9 1338.52 452.9C1338.32 450.3 1338.22 447 1338.22 443C1338.22 438.8 1338.32 435.4 1338.52 432.8C1339.32 418.6 1342.62 406.2 1348.42 395.6C1354.22 384.8 1362.12 376.5 1372.12 370.7C1382.32 364.9 1394.22 362 1407.82 362C1423.02 362 1435.72 365.2 1445.92 371.6C1456.32 378 1464.22 387.1 1469.62 398.9C1475.02 410.7 1477.72 424.5 1477.72 440.3V445.4C1477.72 447.6 1477.02 449.3 1475.62 450.5C1474.42 451.7 1472.82 452.3 1470.82 452.3H1367.02C1367.02 452.5 1367.02 452.9 1367.02 453.5C1367.02 454.1 1367.02 454.6 1367.02 455C1367.42 463.2 1369.22 470.9 1372.42 478.1C1375.62 485.1 1380.22 490.8 1386.22 495.2C1392.22 499.6 1399.42 501.8 1407.82 501.8C1415.02 501.8 1421.02 500.7 1425.82 498.5C1430.62 496.3 1434.52 493.9 1437.52 491.3C1440.52 488.5 1442.52 486.4 1443.52 485C1445.32 482.4 1446.72 480.9 1447.72 480.5C1448.72 479.9 1450.32 479.6 1452.52 479.6H1466.92C1468.92 479.6 1470.52 480.2 1471.72 481.4C1473.12 482.4 1473.72 483.9 1473.52 485.9C1473.32 488.9 1471.72 492.6 1468.72 497C1465.72 501.2 1461.42 505.4 1455.82 509.6C1450.22 513.8 1443.42 517.3 1435.42 520.1C1427.42 522.7 1418.22 524 1407.82 524ZM1367.02 431.6H1449.22V430.7C1449.22 421.7 1447.52 413.7 1444.12 406.7C1440.92 399.7 1436.22 394.2 1430.02 390.2C1423.82 386 1416.42 383.9 1407.82 383.9C1399.22 383.9 1391.82 386 1385.62 390.2C1379.62 394.2 1375.02 399.7 1371.82 406.7C1368.62 413.7 1367.02 421.7 1367.02 430.7V431.6ZM1535.03 578C1533.43 578 1532.03 577.4 1530.83 576.2C1529.63 575 1529.03 573.6 1529.03 572C1529.03 571.2 1529.13 570.4 1529.33 569.6C1529.53 568.8 1529.93 567.8 1530.53 566.6L1553.63 511.7L1496.33 376.4C1495.33 374 1494.83 372.3 1494.83 371.3C1494.83 369.5 1495.43 368 1496.63 366.8C1497.83 365.6 1499.33 365 1501.13 365H1515.83C1517.83 365 1519.43 365.5 1520.63 366.5C1521.83 367.5 1522.63 368.7 1523.03 370.1L1568.63 479.3L1615.43 370.1C1616.03 368.7 1616.83 367.5 1617.83 366.5C1619.03 365.5 1620.73 365 1622.93 365H1637.03C1638.83 365 1640.33 365.6 1641.53 366.8C1642.73 368 1643.33 369.4 1643.33 371C1643.33 372 1642.83 373.8 1641.83 376.4L1556.63 572.9C1556.03 574.3 1555.13 575.5 1553.93 576.5C1552.93 577.5 1551.33 578 1549.13 578H1535.03Z" fill="white"/>
<path fill-rule="evenodd" clip-rule="evenodd" d="M423.201 79H35.0599C15.8733 79 0.261078 94.6095 0.261078 113.796V722.776C0.261078 741.962 15.8733 757.575 35.0599 757.575H423.201C442.388 757.575 458 741.962 458 722.776V113.799C458 94.6122 442.388 79 423.201 79Z" fill="#4017FE"/>
<path fill-rule="evenodd" clip-rule="evenodd" d="M564.943 86.8517L185.073 7.14604C166.296 3.20603 147.811 15.2768 143.871 34.0545L18.8156 630.056C14.8756 648.834 26.9491 667.319 45.7268 671.259L425.596 750.965C444.374 754.905 462.859 742.831 466.799 724.054L591.854 128.055C595.794 109.277 583.721 90.7917 564.943 86.8517Z" fill="#05D697"/>
<path d="M18.8154 630.056C14.8754 648.833 26.949 667.319 45.7266 671.259L425.596 750.965C432.676 752.45 439.714 751.658 445.947 749.09C453.325 742.704 458 733.275 458 722.776V113.799C458 94.6122 442.388 79 423.201 79H134.44L18.8154 630.056Z" fill="#337AFF"/>
</svg>
