<svg width="2685" height="788" viewBox="0 0 2685 788" fill="none" xmlns="http://www.w3.org/2000/svg">
<path d="M1109.5 555C1078.5 555 1052.5 550.5 1031.5 541.5C1010.83 532.167 995 520.167 984 505.5C973.333 490.5 967.667 474.833 967 458.5C967 455.5 968 453 970 451C972 449 974.5 448 977.5 448H1022C1026.33 448 1029.5 449 1031.5 451C1033.83 452.667 1035.83 454.833 1037.5 457.5C1039.5 463.833 1043.33 470.167 1049 476.5C1054.67 482.5 1062.33 487.5 1072 491.5C1082 495.5 1094.5 497.5 1109.5 497.5C1133.5 497.5 1151.33 493.5 1163 485.5C1175 477.5 1181 466.667 1181 453C1181 443.333 1177.83 435.667 1171.5 430C1165.17 424 1155.33 418.667 1142 414C1129 409 1111.67 403.833 1090 398.5C1065 392.5 1044 385.333 1027 377C1010.33 368.333 997.667 357.5 989 344.5C980.667 331.5 976.5 315 976.5 295C976.5 275.667 981.667 258.5 992 243.5C1002.67 228.5 1017.67 216.667 1037 208C1056.67 199.333 1080 195 1107 195C1128.67 195 1147.83 198 1164.5 204C1181.17 209.667 1195 217.333 1206 227C1217 236.333 1225.33 246.5 1231 257.5C1237 268.167 1240.17 278.667 1240.5 289C1240.5 291.667 1239.5 294.167 1237.5 296.5C1235.83 298.5 1233.33 299.5 1230 299.5H1183.5C1180.83 299.5 1178.17 298.833 1175.5 297.5C1172.83 296.167 1170.67 293.667 1169 290C1167 279.667 1160.5 270.833 1149.5 263.5C1138.5 256.167 1124.33 252.5 1107 252.5C1089 252.5 1074.5 255.833 1063.5 262.5C1052.5 269.167 1047 279.5 1047 293.5C1047 302.833 1049.67 310.667 1055 317C1060.67 323 1069.5 328.333 1081.5 333C1093.83 337.667 1110 342.667 1130 348C1158.33 354.333 1181.5 361.667 1199.5 370C1217.5 378.333 1230.67 389 1239 402C1247.33 414.667 1251.5 430.833 1251.5 450.5C1251.5 472.5 1245.5 491.333 1233.5 507C1221.83 522.333 1205.33 534.167 1184 542.5C1162.67 550.833 1137.83 555 1109.5 555ZM1373.8 550C1369.13 550 1365.63 548.833 1363.3 546.5C1360.97 544.167 1358.97 541.167 1357.3 537.5L1285.8 305.5C1285.47 303.833 1285.3 302.333 1285.3 301C1285.3 298 1286.3 295.5 1288.3 293.5C1290.63 291.167 1293.13 290 1295.8 290H1332.8C1336.8 290 1339.97 291.167 1342.3 293.5C1344.63 295.5 1345.97 297.5 1346.3 299.5L1395.3 465L1447.3 301C1447.97 298.667 1449.47 296.333 1451.8 294C1454.13 291.333 1457.63 290 1462.3 290H1487.3C1491.97 290 1495.47 291.333 1497.8 294C1500.13 296.333 1501.63 298.667 1502.3 301L1554.3 465L1603.3 299.5C1603.63 297.5 1604.8 295.5 1606.8 293.5C1609.13 291.167 1612.3 290 1616.3 290H1653.3C1656.3 290 1658.8 291.167 1660.8 293.5C1663.13 295.5 1664.3 298 1664.3 301C1664.3 302.333 1663.97 303.833 1663.3 305.5L1591.8 537.5C1590.8 541.167 1588.97 544.167 1586.3 546.5C1583.97 548.833 1580.47 550 1575.8 550H1543.3C1538.63 550 1534.97 548.833 1532.3 546.5C1529.63 544.167 1527.8 541.167 1526.8 537.5L1474.8 379.5L1422.8 537.5C1421.47 541.167 1419.47 544.167 1416.8 546.5C1414.47 548.833 1410.8 550 1405.8 550H1373.8ZM1724.96 550C1721.62 550 1718.79 548.833 1716.46 546.5C1714.12 544.167 1712.96 541.333 1712.96 538V302C1712.96 298.667 1714.12 295.833 1716.46 293.5C1718.79 291.167 1721.62 290 1724.96 290H1766.46C1770.12 290 1772.96 291.167 1774.96 293.5C1777.29 295.833 1778.46 298.667 1778.46 302V538C1778.46 541.333 1777.29 544.167 1774.96 546.5C1772.96 548.833 1770.12 550 1766.46 550H1724.96ZM1722.96 247C1719.29 247 1716.29 246 1713.96 244C1711.96 241.667 1710.96 238.667 1710.96 235V199C1710.96 195.667 1711.96 192.833 1713.96 190.5C1716.29 188.167 1719.29 187 1722.96 187H1768.46C1772.12 187 1775.12 188.167 1777.46 190.5C1779.79 192.833 1780.96 195.667 1780.96 199V235C1780.96 238.667 1779.79 241.667 1777.46 244C1775.12 246 1772.12 247 1768.46 247H1722.96ZM1857.29 645C1853.96 645 1851.13 643.833 1848.79 641.5C1846.46 639.167 1845.29 636.333 1845.29 633V302C1845.29 298.667 1846.46 295.833 1848.79 293.5C1851.13 291.167 1853.96 290 1857.29 290H1896.79C1900.46 290 1903.29 291.167 1905.29 293.5C1907.63 295.833 1908.79 298.667 1908.79 302V322C1916.79 311.333 1927.29 302.5 1940.29 295.5C1953.29 288.5 1969.46 285 1988.79 285C2006.46 285 2021.79 287.833 2034.79 293.5C2047.79 299.167 2058.63 307.333 2067.29 318C2075.96 328.333 2082.63 340.667 2087.29 355C2091.96 369.333 2094.63 385.167 2095.29 402.5C2095.63 408.167 2095.79 414 2095.79 420C2095.79 426 2095.63 432 2095.29 438C2094.96 454.667 2092.46 470.167 2087.79 484.5C2083.13 498.5 2076.29 510.833 2067.29 521.5C2058.63 531.833 2047.79 540 2034.79 546C2021.79 552 2006.46 555 1988.79 555C1970.79 555 1955.46 551.833 1942.79 545.5C1930.13 538.833 1919.79 530.167 1911.79 519.5V633C1911.79 636.333 1910.63 639.167 1908.29 641.5C1906.29 643.833 1903.46 645 1899.79 645H1857.29ZM1970.29 501.5C1984.63 501.5 1995.79 498.5 2003.79 492.5C2011.79 486.167 2017.46 478 2020.79 468C2024.46 458 2026.63 447 2027.29 435C2027.96 425 2027.96 415 2027.29 405C2026.63 393 2024.46 382 2020.79 372C2017.46 362 2011.79 354 2003.79 348C1995.79 341.667 1984.63 338.5 1970.29 338.5C1956.63 338.5 1945.46 341.667 1936.79 348C1928.46 354.333 1922.29 362.5 1918.29 372.5C1914.63 382.167 1912.46 392.167 1911.79 402.5C1911.46 408.5 1911.29 414.833 1911.29 421.5C1911.29 428.167 1911.46 434.667 1911.79 441C1912.13 451 1914.46 460.667 1918.79 470C1923.13 479 1929.46 486.5 1937.79 492.5C1946.13 498.5 1956.96 501.5 1970.29 501.5ZM2263.92 555C2226.92 555 2197.59 544.333 2175.92 523C2154.26 501.667 2142.59 471.333 2140.92 432C2140.59 428.667 2140.42 424.5 2140.42 419.5C2140.42 414.167 2140.59 410 2140.92 407C2142.26 382 2147.92 360.333 2157.92 342C2168.26 323.667 2182.42 309.667 2200.42 300C2218.42 290 2239.59 285 2263.92 285C2290.92 285 2313.59 290.667 2331.92 302C2350.26 313 2364.09 328.5 2373.42 348.5C2382.76 368.167 2387.42 391 2387.42 417V427.5C2387.42 430.833 2386.26 433.667 2383.92 436C2381.59 438.333 2378.59 439.5 2374.92 439.5H2208.92C2208.92 439.5 2208.92 440 2208.92 441C2208.92 442 2208.92 442.833 2208.92 443.5C2209.26 455.167 2211.42 466 2215.42 476C2219.76 485.667 2225.92 493.5 2233.92 499.5C2242.26 505.5 2252.09 508.5 2263.42 508.5C2272.76 508.5 2280.59 507.167 2286.92 504.5C2293.26 501.5 2298.42 498.167 2302.42 494.5C2306.42 490.833 2309.26 487.833 2310.92 485.5C2313.92 481.5 2316.26 479.167 2317.92 478.5C2319.92 477.5 2322.76 477 2326.42 477H2369.42C2372.76 477 2375.42 478 2377.42 480C2379.76 482 2380.76 484.5 2380.42 487.5C2380.09 492.833 2377.26 499.333 2371.92 507C2366.92 514.667 2359.59 522.167 2349.92 529.5C2340.26 536.833 2328.09 543 2313.42 548C2299.09 552.667 2282.59 555 2263.92 555ZM2208.92 397.5H2319.42V396C2319.42 383 2317.26 371.667 2312.92 362C2308.59 352.333 2302.26 344.667 2293.92 339C2285.59 333.333 2275.59 330.5 2263.92 330.5C2252.26 330.5 2242.26 333.333 2233.92 339C2225.59 344.667 2219.26 352.333 2214.92 362C2210.92 371.667 2208.92 383 2208.92 396V397.5ZM2477.24 645C2474.58 645 2472.24 644 2470.24 642C2468.24 640 2467.24 637.667 2467.24 635C2467.24 633.667 2467.24 632.333 2467.24 631C2467.58 630 2468.24 628.667 2469.24 627L2508.24 534.5L2412.24 308C2410.91 304.667 2410.24 302.333 2410.24 301C2410.58 298 2411.74 295.5 2413.74 293.5C2415.74 291.167 2418.24 290 2421.24 290H2461.74C2465.74 290 2468.74 291 2470.74 293C2472.74 295 2474.24 297.167 2475.24 299.5L2541.74 463L2610.24 299.5C2611.24 296.833 2612.74 294.667 2614.74 293C2616.74 291 2619.74 290 2623.74 290H2663.74C2666.41 290 2668.74 291 2670.74 293C2673.08 295 2674.24 297.333 2674.24 300C2674.24 302 2673.58 304.667 2672.24 308L2530.74 635.5C2529.41 638.167 2527.74 640.333 2525.74 642C2523.74 644 2520.74 645 2516.74 645H2477.24Z" fill="black"/>
<rect x="647.985" y="758.106" width="457.74" height="678.57" rx="90" transform="rotate(-168.15 647.985 758.106)" fill="#05D697"/>
<rect x="647.364" y="644.376" width="457.74" height="678.57" rx="90" transform="rotate(161.733 647.364 644.376)" fill="#4017FE"/>
<path d="M462.883 85.4648C449.988 46.3983 412.903 22.1059 373.741 23.7265C347.602 34.8622 327.14 58.1652 320.863 88.082L218.482 576.027C208.275 624.673 239.436 672.384 288.082 682.591L436.952 713.826L561.9 672.585C609.1 657.005 634.734 606.112 619.155 558.911L462.883 85.4648Z" fill="#337AFF"/>
</svg>
