<svg width="2496" height="759" viewBox="0 0 2496 759" fill="none" xmlns="http://www.w3.org/2000/svg">
<path d="M920.5 555C889.5 555 863.5 550.5 842.5 541.5C821.833 532.167 806 520.167 795 505.5C784.333 490.5 778.667 474.833 778 458.5C778 455.5 779 453 781 451C783 449 785.5 448 788.5 448H833C837.333 448 840.5 449 842.5 451C844.833 452.667 846.833 454.833 848.5 457.5C850.5 463.833 854.333 470.167 860 476.5C865.667 482.5 873.333 487.5 883 491.5C893 495.5 905.5 497.5 920.5 497.5C944.5 497.5 962.333 493.5 974 485.5C986 477.5 992 466.667 992 453C992 443.333 988.833 435.667 982.5 430C976.167 424 966.333 418.667 953 414C940 409 922.667 403.833 901 398.5C876 392.5 855 385.333 838 377C821.333 368.333 808.667 357.5 800 344.5C791.667 331.5 787.5 315 787.5 295C787.5 275.667 792.667 258.5 803 243.5C813.667 228.5 828.667 216.667 848 208C867.667 199.333 891 195 918 195C939.667 195 958.833 198 975.5 204C992.167 209.667 1006 217.333 1017 227C1028 236.333 1036.33 246.5 1042 257.5C1048 268.167 1051.17 278.667 1051.5 289C1051.5 291.667 1050.5 294.167 1048.5 296.5C1046.83 298.5 1044.33 299.5 1041 299.5H994.5C991.833 299.5 989.167 298.833 986.5 297.5C983.833 296.167 981.667 293.667 980 290C978 279.667 971.5 270.833 960.5 263.5C949.5 256.167 935.333 252.5 918 252.5C900 252.5 885.5 255.833 874.5 262.5C863.5 269.167 858 279.5 858 293.5C858 302.833 860.667 310.667 866 317C871.667 323 880.5 328.333 892.5 333C904.833 337.667 921 342.667 941 348C969.333 354.333 992.5 361.667 1010.5 370C1028.5 378.333 1041.67 389 1050 402C1058.33 414.667 1062.5 430.833 1062.5 450.5C1062.5 472.5 1056.5 491.333 1044.5 507C1032.83 522.333 1016.33 534.167 995 542.5C973.667 550.833 948.833 555 920.5 555ZM1184.8 550C1180.13 550 1176.63 548.833 1174.3 546.5C1171.97 544.167 1169.97 541.167 1168.3 537.5L1096.8 305.5C1096.47 303.833 1096.3 302.333 1096.3 301C1096.3 298 1097.3 295.5 1099.3 293.5C1101.63 291.167 1104.13 290 1106.8 290H1143.8C1147.8 290 1150.97 291.167 1153.3 293.5C1155.63 295.5 1156.97 297.5 1157.3 299.5L1206.3 465L1258.3 301C1258.97 298.667 1260.47 296.333 1262.8 294C1265.13 291.333 1268.63 290 1273.3 290H1298.3C1302.97 290 1306.47 291.333 1308.8 294C1311.13 296.333 1312.63 298.667 1313.3 301L1365.3 465L1414.3 299.5C1414.63 297.5 1415.8 295.5 1417.8 293.5C1420.13 291.167 1423.3 290 1427.3 290H1464.3C1467.3 290 1469.8 291.167 1471.8 293.5C1474.13 295.5 1475.3 298 1475.3 301C1475.3 302.333 1474.97 303.833 1474.3 305.5L1402.8 537.5C1401.8 541.167 1399.97 544.167 1397.3 546.5C1394.97 548.833 1391.47 550 1386.8 550H1354.3C1349.63 550 1345.97 548.833 1343.3 546.5C1340.63 544.167 1338.8 541.167 1337.8 537.5L1285.8 379.5L1233.8 537.5C1232.47 541.167 1230.47 544.167 1227.8 546.5C1225.47 548.833 1221.8 550 1216.8 550H1184.8ZM1535.96 550C1532.62 550 1529.79 548.833 1527.46 546.5C1525.12 544.167 1523.96 541.333 1523.96 538V302C1523.96 298.667 1525.12 295.833 1527.46 293.5C1529.79 291.167 1532.62 290 1535.96 290H1577.46C1581.12 290 1583.96 291.167 1585.96 293.5C1588.29 295.833 1589.46 298.667 1589.46 302V538C1589.46 541.333 1588.29 544.167 1585.96 546.5C1583.96 548.833 1581.12 550 1577.46 550H1535.96ZM1533.96 247C1530.29 247 1527.29 246 1524.96 244C1522.96 241.667 1521.96 238.667 1521.96 235V199C1521.96 195.667 1522.96 192.833 1524.96 190.5C1527.29 188.167 1530.29 187 1533.96 187H1579.46C1583.12 187 1586.12 188.167 1588.46 190.5C1590.79 192.833 1591.96 195.667 1591.96 199V235C1591.96 238.667 1590.79 241.667 1588.46 244C1586.12 246 1583.12 247 1579.46 247H1533.96ZM1668.29 645C1664.96 645 1662.13 643.833 1659.79 641.5C1657.46 639.167 1656.29 636.333 1656.29 633V302C1656.29 298.667 1657.46 295.833 1659.79 293.5C1662.13 291.167 1664.96 290 1668.29 290H1707.79C1711.46 290 1714.29 291.167 1716.29 293.5C1718.63 295.833 1719.79 298.667 1719.79 302V322C1727.79 311.333 1738.29 302.5 1751.29 295.5C1764.29 288.5 1780.46 285 1799.79 285C1817.46 285 1832.79 287.833 1845.79 293.5C1858.79 299.167 1869.63 307.333 1878.29 318C1886.96 328.333 1893.63 340.667 1898.29 355C1902.96 369.333 1905.63 385.167 1906.29 402.5C1906.63 408.167 1906.79 414 1906.79 420C1906.79 426 1906.63 432 1906.29 438C1905.96 454.667 1903.46 470.167 1898.79 484.5C1894.13 498.5 1887.29 510.833 1878.29 521.5C1869.63 531.833 1858.79 540 1845.79 546C1832.79 552 1817.46 555 1799.79 555C1781.79 555 1766.46 551.833 1753.79 545.5C1741.13 538.833 1730.79 530.167 1722.79 519.5V633C1722.79 636.333 1721.63 639.167 1719.29 641.5C1717.29 643.833 1714.46 645 1710.79 645H1668.29ZM1781.29 501.5C1795.63 501.5 1806.79 498.5 1814.79 492.5C1822.79 486.167 1828.46 478 1831.79 468C1835.46 458 1837.63 447 1838.29 435C1838.96 425 1838.96 415 1838.29 405C1837.63 393 1835.46 382 1831.79 372C1828.46 362 1822.79 354 1814.79 348C1806.79 341.667 1795.63 338.5 1781.29 338.5C1767.63 338.5 1756.46 341.667 1747.79 348C1739.46 354.333 1733.29 362.5 1729.29 372.5C1725.63 382.167 1723.46 392.167 1722.79 402.5C1722.46 408.5 1722.29 414.833 1722.29 421.5C1722.29 428.167 1722.46 434.667 1722.79 441C1723.13 451 1725.46 460.667 1729.79 470C1734.13 479 1740.46 486.5 1748.79 492.5C1757.13 498.5 1767.96 501.5 1781.29 501.5ZM2074.92 555C2037.92 555 2008.59 544.333 1986.92 523C1965.26 501.667 1953.59 471.333 1951.92 432C1951.59 428.667 1951.42 424.5 1951.42 419.5C1951.42 414.167 1951.59 410 1951.92 407C1953.26 382 1958.92 360.333 1968.92 342C1979.26 323.667 1993.42 309.667 2011.42 300C2029.42 290 2050.59 285 2074.92 285C2101.92 285 2124.59 290.667 2142.92 302C2161.26 313 2175.09 328.5 2184.42 348.5C2193.76 368.167 2198.42 391 2198.42 417V427.5C2198.42 430.833 2197.26 433.667 2194.92 436C2192.59 438.333 2189.59 439.5 2185.92 439.5H2019.92C2019.92 439.5 2019.92 440 2019.92 441C2019.92 442 2019.92 442.833 2019.92 443.5C2020.26 455.167 2022.42 466 2026.42 476C2030.76 485.667 2036.92 493.5 2044.92 499.5C2053.26 505.5 2063.09 508.5 2074.42 508.5C2083.76 508.5 2091.59 507.167 2097.92 504.5C2104.26 501.5 2109.42 498.167 2113.42 494.5C2117.42 490.833 2120.26 487.833 2121.92 485.5C2124.92 481.5 2127.26 479.167 2128.92 478.5C2130.92 477.5 2133.76 477 2137.42 477H2180.42C2183.76 477 2186.42 478 2188.42 480C2190.76 482 2191.76 484.5 2191.42 487.5C2191.09 492.833 2188.26 499.333 2182.92 507C2177.92 514.667 2170.59 522.167 2160.92 529.5C2151.26 536.833 2139.09 543 2124.42 548C2110.09 552.667 2093.59 555 2074.92 555ZM2019.92 397.5H2130.42V396C2130.42 383 2128.26 371.667 2123.92 362C2119.59 352.333 2113.26 344.667 2104.92 339C2096.59 333.333 2086.59 330.5 2074.92 330.5C2063.26 330.5 2053.26 333.333 2044.92 339C2036.59 344.667 2030.26 352.333 2025.92 362C2021.92 371.667 2019.92 383 2019.92 396V397.5ZM2288.24 645C2285.58 645 2283.24 644 2281.24 642C2279.24 640 2278.24 637.667 2278.24 635C2278.24 633.667 2278.24 632.333 2278.24 631C2278.58 630 2279.24 628.667 2280.24 627L2319.24 534.5L2223.24 308C2221.91 304.667 2221.24 302.333 2221.24 301C2221.58 298 2222.74 295.5 2224.74 293.5C2226.74 291.167 2229.24 290 2232.24 290H2272.74C2276.74 290 2279.74 291 2281.74 293C2283.74 295 2285.24 297.167 2286.24 299.5L2352.74 463L2421.24 299.5C2422.24 296.833 2423.74 294.667 2425.74 293C2427.74 291 2430.74 290 2434.74 290H2474.74C2477.41 290 2479.74 291 2481.74 293C2484.08 295 2485.24 297.333 2485.24 300C2485.24 302 2484.58 304.667 2483.24 308L2341.74 635.5C2340.41 638.167 2338.74 640.333 2336.74 642C2334.74 644 2331.74 645 2327.74 645H2288.24Z" fill="white"/>
<path fill-rule="evenodd" clip-rule="evenodd" d="M422.94 79H34.7986C15.612 79 -0.000152588 94.6095 -0.000152588 113.796V722.776C-0.000152588 741.962 15.612 757.575 34.7986 757.575H422.94C442.127 757.575 457.739 741.962 457.739 722.776V113.799C457.739 94.6122 442.127 79 422.94 79Z" fill="#4017FE"/>
<path fill-rule="evenodd" clip-rule="evenodd" d="M564.682 86.8517L184.812 7.14604C166.035 3.20603 147.55 15.2768 143.61 34.0545L18.5544 630.056C14.6144 648.834 26.6878 667.319 45.4655 671.259L425.335 750.965C444.113 754.905 462.598 742.831 466.538 724.054L591.593 128.055C595.533 109.277 583.459 90.7917 564.682 86.8517Z" fill="#05D697"/>
<path d="M18.5542 630.056C14.6142 648.833 26.6878 667.319 45.4653 671.259L425.334 750.965C432.415 752.45 439.453 751.658 445.686 749.09C453.063 742.704 457.739 733.275 457.739 722.776V113.799C457.739 94.6122 442.127 79 422.94 79H134.179L18.5542 630.056Z" fill="#337AFF"/>
</svg>
